{"title":"Satyagraha 2013 Hindi Movies HDSCamRip New Souce Best Quality wi","uid":8866609,"size":754550784,"categoryP":"video","categoryS":"movies","magnet":"?xt=urn:btih:5e1e0da00820005a83bd5810b554b612952bd59b&amp;dn=Satyagraha+2013+Hindi+Movies+HDSCamRip+New+Souce+Best+Quality+wi&amp;tr=udp%3A%2F%2Ftracker.openbittorrent.com%3A80&amp;tr=udp%3A%2F%2Fopen.demonii.com%3A1337&amp;tr=udp%3A%2F%2Ftracker.coppersurfer.tk%3A6969&amp;tr=udp%3A%2F%2Fexodus.desync.com%3A6969","seeders":2,"leechers":7,"uploader":"basicssom","files":2,"time":1377929704,"description":" &lt;a href=&quot;http://users2.jabry.com/myimghost/logo.jpg&quot; rel=&quot;nofollow&quot; target=&quot;_NEW&quot;&gt;http://users2.jabry.com/myimghost/logo.jpg&lt;/a&gt;\n\nSatyagraha 2013 Hindi Movies HDSCamRip New Souce Best Quality with Sample ~ â˜»rDXâ˜»\n\nScreen Shots :\n &lt;a href=&quot;\nhttp://myimghosting.serveftp.com/13/Satyagraha.html&quot; rel=&quot;nofollow&quot; target=&quot;_NEW&quot;&gt;\nhttp://myimghosting.serveftp.com/13/Satyagraha.html&lt;/a&gt;\n &lt;a href=&quot;\nhttp://myimghost.cwahi.net/Satyagraha.html&quot; rel=&quot;nofollow&quot; target=&quot;_NEW&quot;&gt;\nhttp://myimghost.cwahi.net/Satyagraha.html&lt;/a&gt;\n\nAll rDX torrents are Seeding From the 1Gbps Seedbox 24X7\n &lt;a href=&quot;\nhttp://users2.jabry.com/myimghost/Satyagraha/Satyagraha.jpg&quot; rel=&quot;nofollow&quot; target=&quot;_NEW&quot;&gt;\nhttp://users2.jabry.com/myimghost/Satyagraha/Satyagraha.jpg&lt;/a&gt;\n &lt;a href=&quot;\nhttp://users2.jabry.com/myimghost/Satyagraha/Satyagraha1.jpg&quot; rel=&quot;nofollow&quot; target=&quot;_NEW&quot;&gt;\nhttp://users2.jabry.com/myimghost/Satyagraha/Satyagraha1.jpg&lt;/a&gt;\n &lt;a href=&quot;\nhttp://users2.jabry.com/myimghost/Satyagraha/Satyagraha2.jpg&quot; rel=&quot;nofollow&quot; target=&quot;_NEW&quot;&gt;\nhttp://users2.jabry.com/myimghost/Satyagraha/Satyagraha2.jpg&lt;/a&gt;\n\nFormat                                   : MPEG-PS\nFile size                                : 714 MiB\nDuration                                 : 2h 18mn\nOverall bit rate mode                    : Variable\nOverall bit rate                         : 721 Kbps\n\nVideo\nID                                       : 224 (0xE0)\nFormat                                   : MPEG Video\nFormat version                           : Version 2\nFormat profile                           : Main@Main\nFormat settings, BVOP                    : Yes\nFormat settings, Matrix                  : Default\nFormat settings, GOP                     : M=3, N=13\nDuration                                 : 2h 18mn\nBit rate mode                            : Variable\nBit rate                                 : 515 Kbps\nMaximum bit rate                         : 9 608 Kbps\nWidth                                    : 352 pixels\nHeight                                   : 288 pixels\nDisplay aspect ratio                     : 4:3\nFrame rate                               : 25.000 fps\nStandard                                 : PAL\nColor space                              : YUV\nChroma subsampling                       : 4:2:0\nBit depth                                : 8 bits\nScan type                                : Progressive\nCompression mode                         : Lossy\nBits/(Pixel*Frame)                       : 0.203\nStream size                              : 510 MiB (71%)\n\nAudio\nID                                       : 189 (0xBD)-128 (0x80)\nFormat                                   : AC-3\nFormat/Info                              : Audio Coding 3\nMode extension                           : CM (complete main)\nFormat settings, Endianness              : Big\nMuxing mode                              : DVD-Video\nDuration                                 : 2h 18mn\nBit rate mode                            : Constant\nBit rate                                 : 192 Kbps\nChannel(s)                               : 2 channels\nChannel positions                        : Front: L R\nSampling rate                            : 48.0 KHz\nBit depth                                : 16 bits\nCompression mode                         : Lossy\nStream size                              : 190 MiB (27%)","torrent":{"xt":"urn:btih:5e1e0da00820005a83bd5810b554b612952bd59b","amp;dn":"Satyagraha+2013+Hindi+Movies+HDSCamRip+New+Souce+Best+Quality+wi","amp;tr":["udp%3A%2F%2Ftracker.openbittorrent.com%3A80","udp%3A%2F%2Fopen.demonii.com%3A1337","udp%3A%2F%2Ftracker.coppersurfer.tk%3A6969","udp%3A%2F%2Fexodus.desync.com%3A6969"],"infoHash":"5e1e0da00820005a83bd5810b554b612952bd59b","infoHashBuffer":{"type":"Buffer","data":[94,30,13,160,8,32,0,90,131,189,88,16,181,84,182,18,149,43,213,155]},"announce":[],"urlList":[]}}